<svg width="24" height="28" viewBox="0 0 24 28" fill="none" xmlns="http://www.w3.org/2000/svg">
<path d="M19.8461 11.2H18.4615V10.8652C18.9269 10.333 19.2323 9.67739 19.3418 8.97561C19.4512 8.27383 19.3601 7.55505 19.0791 6.90385C18.7982 6.25266 18.3392 5.69615 17.756 5.29982C17.1729 4.90349 16.4899 4.68383 15.7874 4.6667C15.493 3.62721 14.9457 2.67884 14.1957 1.90812C13.6095 1.30153 12.9089 0.820084 12.1353 0.492326C11.3617 0.164568 10.5309 -0.00283567 9.69218 3.63371e-05C7.96658 3.63371e-05 6.35868 0.716369 5.13444 2.02303C4.53358 1.82946 3.88982 1.81792 3.28255 1.98983C2.67528 2.16174 2.13104 2.50959 1.71695 2.99049C1.30285 3.47139 1.037 4.06431 0.95218 4.69614C0.867357 5.32797 0.967269 5.97109 1.2396 6.5462C0.802576 6.93838 0.464 7.42997 0.251778 7.98044C0.0395557 8.53091 -0.0402343 9.1245 0.0189851 9.71227C0.0782044 10.3 0.274737 10.8652 0.592383 11.3611C0.910028 11.857 1.33969 12.2694 1.84595 12.5644V24.7333C1.84687 25.5994 2.18755 26.4298 2.79324 27.0422C3.39893 27.6546 4.22017 27.9991 5.07675 28H15.2307C16.0873 27.9991 16.9085 27.6546 17.5142 27.0422C18.1199 26.4298 18.4606 25.5994 18.4615 24.7333V24.2667H19.8461C20.9474 24.2654 22.0033 23.8225 22.782 23.0352C23.5607 22.2478 23.9988 21.1802 24 20.0667V15.4C23.9988 14.2865 23.5607 13.2189 22.782 12.4315C22.0033 11.6442 20.9474 11.2013 19.8461 11.2ZM7.38446 23.3333C7.38446 23.5809 7.28721 23.8183 7.1141 23.9933C6.94098 24.1683 6.70619 24.2667 6.46138 24.2667C6.21656 24.2667 5.98177 24.1683 5.80866 23.9933C5.63554 23.8183 5.53829 23.5809 5.53829 23.3333V14C5.53829 13.7525 5.63554 13.5151 5.80866 13.3401C5.98177 13.165 6.21656 13.0667 6.46138 13.0667C6.70619 13.0667 6.94098 13.165 7.1141 13.3401C7.28721 13.5151 7.38446 13.7525 7.38446 14V23.3333ZM11.0768 23.3333C11.0768 23.5809 10.9796 23.8183 10.8064 23.9933C10.6333 24.1683 10.3985 24.2667 10.1537 24.2667C9.9089 24.2667 9.67411 24.1683 9.501 23.9933C9.32789 23.8183 9.23063 23.5809 9.23063 23.3333V14C9.23063 13.7525 9.32789 13.5151 9.501 13.3401C9.67411 13.165 9.9089 13.0667 10.1537 13.0667C10.3985 13.0667 10.6333 13.165 10.8064 13.3401C10.9796 13.5151 11.0768 13.7525 11.0768 14V23.3333ZM14.7691 23.3333C14.7691 23.5809 14.6719 23.8183 14.4988 23.9933C14.3257 24.1683 14.0909 24.2667 13.8461 24.2667C13.6012 24.2667 13.3665 24.1683 13.1933 23.9933C13.0202 23.8183 12.923 23.5809 12.923 23.3333V14C12.923 13.7525 13.0202 13.5151 13.1933 13.3401C13.3665 13.165 13.6012 13.0667 13.8461 13.0667C14.0909 13.0667 14.3257 13.165 14.4988 13.3401C14.6719 13.5151 14.7691 13.7525 14.7691 14V23.3333ZM15.6922 10.2667C15.2116 10.2667 14.5066 9.96452 14.1524 9.60694C13.9794 9.43188 13.7447 9.33347 13.4999 9.33336H6.46138C6.27227 9.33379 6.08786 9.39293 5.93308 9.50279C5.77831 9.61265 5.66063 9.76792 5.59598 9.94761C5.20194 11.0373 4.23443 11.2 3.69212 11.2C3.20249 11.2 2.7329 11.0034 2.38668 10.6533C2.04046 10.3032 1.84595 9.82843 1.84595 9.33336C1.84595 8.83829 2.04046 8.36349 2.38668 8.01343C2.7329 7.66336 3.20249 7.46669 3.69212 7.46669C3.69731 7.46669 4.21828 7.48653 4.63828 7.80503C4.73526 7.87857 4.84561 7.93207 4.96304 7.96249C5.08047 7.99291 5.20267 7.99965 5.32268 7.98231C5.44268 7.96498 5.55813 7.92392 5.66244 7.86147C5.76675 7.79902 5.85787 7.71641 5.9306 7.61836C6.00333 7.52031 6.05625 7.40873 6.08634 7.29C6.11642 7.17126 6.12309 7.0477 6.10594 6.92637C6.0888 6.80503 6.04819 6.6883 5.98643 6.58283C5.92466 6.47737 5.84296 6.38524 5.74599 6.3117C5.14789 5.87071 4.43201 5.62266 3.69212 5.60003C3.42036 5.6002 3.14946 5.63091 2.88442 5.69161C2.79283 5.47862 2.75508 5.24594 2.77458 5.01453C2.79407 4.78311 2.87021 4.56024 2.99611 4.36598C3.12202 4.17173 3.29374 4.0122 3.49582 3.90176C3.69789 3.79133 3.92396 3.73346 4.15366 3.73337C4.37173 3.73231 4.58691 3.78383 4.78136 3.88365C4.97581 3.98347 5.14392 4.12873 5.27175 4.30736C5.37578 4.45245 5.46672 4.60668 5.54348 4.7682C5.56853 5.00605 5.68294 5.22511 5.8631 5.38014C6.04326 5.53517 6.27542 5.61435 6.51164 5.60133C6.74786 5.5883 6.97013 5.48407 7.13254 5.31015C7.29496 5.13623 7.38514 4.9059 7.38446 4.6667C7.38446 4.27178 7.17619 3.78178 6.76369 3.20837C6.73715 3.17162 6.70599 3.13545 6.68003 3.09987C7.52235 2.3007 8.57524 1.8667 9.69218 1.8667C10.2858 1.86497 10.8737 1.98376 11.421 2.21603C11.9683 2.4483 12.464 2.78932 12.8786 3.21887C13.397 3.75677 13.7798 4.413 13.9945 5.13206C14.2092 5.85112 14.2495 6.61189 14.112 7.35003C14.0894 7.47045 14.0904 7.59421 14.115 7.71424C14.1397 7.83426 14.1874 7.9482 14.2556 8.04955C14.3238 8.1509 14.4111 8.23768 14.5125 8.30492C14.6139 8.37216 14.7273 8.41855 14.8465 8.44144C14.9035 8.45228 14.9615 8.45775 15.0195 8.45778C15.2342 8.45756 15.442 8.38172 15.6073 8.24332C15.7726 8.10492 15.8851 7.9126 15.9253 7.69944C15.9956 7.32589 16.0334 6.94683 16.0384 6.56661C16.4896 6.65389 16.8924 6.90814 17.1682 7.27969C17.4439 7.65123 17.5727 8.11337 17.5295 8.57581C17.4862 9.03826 17.274 9.46778 16.9342 9.78046C16.5945 10.0931 16.1516 10.2665 15.6922 10.2667ZM22.1538 20.0667C22.1538 20.6855 21.9107 21.279 21.4779 21.7166C21.0451 22.1542 20.4582 22.4 19.8461 22.4H18.4615V13.0667H19.8461C20.4582 13.0667 21.0451 13.3125 21.4779 13.7501C21.9107 14.1877 22.1538 14.7812 22.1538 15.4V20.0667Z" fill="#A0A0A0"/>
</svg>
