<svg width="19" height="22" viewBox="0 0 19 22" fill="none" xmlns="http://www.w3.org/2000/svg">
<path d="M11.4 12H12.825V14.82L15.143 16.23L14.4305 17.53L11.4 15.69V12ZM15.2 7H1.9V18H6.3365C5.928 17.09 5.7 16.07 5.7 15C5.7 13.1435 6.40062 11.363 7.64774 10.0503C8.89486 8.7375 10.5863 8 12.35 8C13.3665 8 14.3355 8.24 15.2 8.67V7ZM1.9 20C1.39609 20 0.912816 19.7893 0.556497 19.4142C0.200178 19.0391 0 18.5304 0 18V4C0 2.89 0.8455 2 1.9 2H2.85V0H4.75V2H12.35V0H14.25V2H15.2C15.7039 2 16.1872 2.21071 16.5435 2.58579C16.8998 2.96086 17.1 3.46957 17.1 4V10.1C18.278 11.36 19 13.09 19 15C19 16.8565 18.2994 18.637 17.0523 19.9497C15.8051 21.2625 14.1137 22 12.35 22C10.5355 22 8.892 21.24 7.695 20H1.9ZM12.35 10.15C11.128 10.15 9.95608 10.661 9.09201 11.5705C8.22793 12.4801 7.7425 13.7137 7.7425 15C7.7425 17.68 9.804 19.85 12.35 19.85C12.9551 19.85 13.5542 19.7246 14.1132 19.4808C14.6722 19.2371 15.1801 18.8798 15.608 18.4295C16.0358 17.9791 16.3752 17.4444 16.6068 16.856C16.8383 16.2676 16.9575 15.6369 16.9575 15C16.9575 12.32 14.896 10.15 12.35 10.15Z" fill="black"/>
</svg>
