<svg width="35" height="33" viewBox="0 0 35 33" fill="none" xmlns="http://www.w3.org/2000/svg">
<path d="M20.6723 22.3894L25.768 16.6163C26.6204 15.6515 27.776 15.1095 28.981 15.1094H30.3111C31.1633 15.1094 31.9805 15.4929 32.583 16.1755C33.1856 16.8581 33.5241 17.784 33.5241 18.7494C33.5241 19.7148 33.1856 20.6406 32.583 21.3232C31.9805 22.0059 31.1633 22.3894 30.3111 22.3894H4.60749C3.75536 22.3894 2.93813 22.0059 2.33558 21.3232C1.73304 20.6406 1.39453 19.7148 1.39453 18.7494C1.39453 17.784 1.73304 16.8581 2.33558 16.1755C2.93813 15.4929 3.75536 15.1094 4.60749 15.1094H10.4824C12.8921 15.1094 15.2038 16.1941 16.9083 18.1251L20.6723 22.3894Z" stroke="#A0A0A0" stroke-width="2" stroke-linecap="round" stroke-linejoin="round"/>
<path d="M3 22.3896H31.9166V26.0296C31.9166 27.4777 31.4088 28.8665 30.505 29.8905C29.6012 30.9144 28.3754 31.4896 27.0972 31.4896H7.81943C6.54124 31.4896 5.3154 30.9144 4.41158 29.8905C3.50776 28.8665 3 27.4777 3 26.0296V22.3896Z" fill="#A0A0A0" stroke="#A0A0A0" stroke-width="2" stroke-linecap="round" stroke-linejoin="round"/>
<path fill-rule="evenodd" clip-rule="evenodd" d="M6.96468 3.37808C9.86116 1.38154 13.5721 0.549805 17.4598 0.549805C21.3475 0.549805 25.0584 1.38154 27.9549 3.37808C30.9173 5.41831 32.9494 8.63061 33.4201 13.075C33.6563 15.3027 32.0257 16.9298 30.3116 16.9298H4.60798C2.89386 16.9298 1.26329 15.3027 1.49944 13.075C1.97014 8.63061 4.00233 5.41831 6.96468 3.37808ZM9.42741 6.00981C9.00134 6.00981 8.59273 6.20156 8.29146 6.54287C7.99018 6.88419 7.82093 7.34711 7.82093 7.82981C7.82093 8.3125 7.99018 8.77542 8.29146 9.11674C8.59273 9.45806 9.00134 9.64981 9.42741 9.64981C9.85347 9.64981 10.2637 9.45806 10.565 9.11674C10.8662 8.77542 11.0355 8.3125 11.0355 7.82981C11.0355 7.34711 10.8662 6.88419 10.565 6.54287C10.2637 6.20156 9.85347 6.00981 9.42741 6.00981ZM22.2792 7.82981C22.2792 7.34711 22.4485 6.88419 22.7498 6.54287C23.051 6.20156 23.4596 6.00981 23.8857 6.00981C24.3118 6.00981 24.722 6.20156 25.0233 6.54287C25.3245 6.88419 25.4938 7.34711 25.4938 7.82981C25.4938 8.3125 25.3245 8.77542 25.0233 9.11674C24.722 9.45806 24.3134 9.64981 23.8873 9.64981C23.4612 9.64981 23.051 9.45806 22.7498 9.11674C22.4485 8.77542 22.2792 8.3125 22.2792 7.82981ZM15.8533 9.64981C15.4273 9.64981 15.0186 9.84156 14.7174 10.1829C14.4161 10.5242 14.2468 10.9871 14.2468 11.4698C14.2468 11.9525 14.4161 12.4154 14.7174 12.7567C15.0186 13.0981 15.4273 13.2898 15.8533 13.2898H15.8549C16.281 13.2898 16.6896 13.0981 16.9909 12.7567C17.2921 12.4154 17.4614 11.9525 17.4614 11.4698C17.4614 10.9871 17.2921 10.5242 16.9909 10.1829C16.6896 9.84156 16.281 9.64981 15.8549 9.64981H15.8533Z" fill="#A0A0A0"/>
</svg>
