<svg width="30" height="30" viewBox="0 0 30 30" fill="none" xmlns="http://www.w3.org/2000/svg">
<path d="M15.15 24.8831L15 25.042L14.835 24.8831C7.71 18.0352 3 13.5071 3 8.91534C3 5.73767 5.25 3.35442 8.25 3.35442C10.56 3.35442 12.81 4.94326 13.605 7.10407H16.395C17.19 4.94326 19.44 3.35442 21.75 3.35442C24.75 3.35442 27 5.73767 27 8.91534C27 13.5071 22.29 18.0352 15.15 24.8831ZM21.75 0.176758C19.14 0.176758 16.635 1.46371 15 3.48153C13.365 1.46371 10.86 0.176758 8.25 0.176758C3.63 0.176758 0 4.00584 0 8.91534C0 14.9052 5.1 19.8147 12.825 27.2346L15 29.3318L17.175 27.2346C24.9 19.8147 30 14.9052 30 8.91534C30 4.00584 26.37 0.176758 21.75 0.176758Z" fill="#A0A0A0"/>
</svg>
