<svg width="26" height="17" viewBox="0 0 26 17" fill="none" xmlns="http://www.w3.org/2000/svg">
<path d="M24.375 0H1.625C1.19402 0 0.780698 0.179107 0.475951 0.497919C0.171205 0.816731 0 1.24913 0 1.7V15.3C0 15.7509 0.171205 16.1833 0.475951 16.5021C0.780698 16.8209 1.19402 17 1.625 17H24.375C24.806 17 25.2193 16.8209 25.5241 16.5021C25.8288 16.1833 26 15.7509 26 15.3V1.7C26 1.24913 25.8288 0.816731 25.5241 0.497919C25.2193 0.179107 24.806 0 24.375 0ZM24.375 5.1C23.5433 5.02946 22.7641 4.64624 22.1816 4.0212C21.5991 3.39617 21.2526 2.5716 21.2063 1.7H24.375V5.1ZM24.375 6.477V10.5825C23.2051 10.656 22.102 11.1776 21.2762 12.0477C20.4505 12.9178 19.9599 14.0756 19.8981 15.3H6.08563C6.02616 14.0768 5.53873 12.9193 4.71616 12.0478C3.8936 11.1763 2.79336 10.6517 1.625 10.574V6.46C2.80157 6.38558 3.91012 5.85799 4.73682 4.97901C5.56352 4.10003 6.04981 2.93192 6.10188 1.7H19.9144C19.9661 2.92917 20.4501 4.09502 21.2734 4.9736C22.0967 5.85218 23.2013 6.38154 24.375 6.46V6.477ZM4.79375 1.7C4.74739 2.5716 4.40092 3.39617 3.8184 4.0212C3.23587 4.64624 2.45671 5.02946 1.625 5.1V1.7H4.79375ZM1.625 11.951C2.44888 12.0201 3.22174 12.3961 3.80319 13.0106C4.38464 13.6251 4.73611 14.4374 4.79375 15.3H1.625V11.951ZM21.2063 15.3C21.2639 14.4374 21.6154 13.6251 22.1968 13.0106C22.7783 12.3961 23.5511 12.0201 24.375 11.951V15.3H21.2063Z" fill="black"/>
<path d="M12.9977 2.42188C10.1783 2.42188 7.87891 5.15037 7.87891 8.49937C7.87891 11.8484 10.1783 14.5769 12.9977 14.5769C15.817 14.5769 18.1164 11.8484 18.1164 8.49937C18.1164 5.15037 15.817 2.42188 12.9977 2.42188ZM12.9977 13.2084C10.8933 13.2084 9.17891 11.0919 9.17891 8.49087C9.17891 5.88987 10.8933 3.77337 12.9977 3.77337C15.102 3.77337 16.8164 5.88987 16.8164 8.49087C16.8164 11.0919 15.102 13.2169 12.9977 13.2169V13.2084Z" fill="black"/>
</svg>
