<svg width="26" height="26" viewBox="0 0 26 26" fill="none" xmlns="http://www.w3.org/2000/svg">
<path d="M9 10.3333H9.01333M17 10.3333H17.0133M1 13C1 14.5759 1.31039 16.1363 1.91345 17.5922C2.5165 19.0481 3.40042 20.371 4.51472 21.4853C5.62902 22.5996 6.95189 23.4835 8.4078 24.0866C9.86371 24.6896 11.4241 25 13 25C14.5759 25 16.1363 24.6896 17.5922 24.0866C19.0481 23.4835 20.371 22.5996 21.4853 21.4853C22.5996 20.371 23.4835 19.0481 24.0866 17.5922C24.6896 16.1363 25 14.5759 25 13C25 11.4241 24.6896 9.86371 24.0866 8.4078C23.4835 6.95189 22.5996 5.62902 21.4853 4.51472C20.371 3.40042 19.0481 2.5165 17.5922 1.91345C16.1363 1.31039 14.5759 1 13 1C11.4241 1 9.86371 1.31039 8.4078 1.91345C6.95189 2.5165 5.62902 3.40042 4.51472 4.51472C3.40042 5.62902 2.5165 6.95189 1.91345 8.4078C1.31039 9.86371 1 11.4241 1 13Z" stroke="#A0A0A0" stroke-width="2" stroke-linecap="round" stroke-linejoin="round"/>
<path d="M9.66797 17C10.1025 17.4435 10.6211 17.7958 11.1935 18.0363C11.7658 18.2768 12.3805 18.4007 13.0013 18.4007C13.6222 18.4007 14.2368 18.2768 14.8091 18.0363C15.3815 17.7958 15.9001 17.4435 16.3346 17M13.0013 1C12.2941 1 11.6158 1.28095 11.1157 1.78105C10.6156 2.28115 10.3346 2.95942 10.3346 3.66667C10.3346 4.37391 10.6156 5.05219 11.1157 5.55229C11.6158 6.05238 12.2941 6.33333 13.0013 6.33333" stroke="#A0A0A0" stroke-width="2" stroke-linecap="round" stroke-linejoin="round"/>
</svg>
