<svg width="29" height="37" viewBox="0 0 29 37" fill="none" xmlns="http://www.w3.org/2000/svg">
<path d="M3.77231 36.9498C1.70667 36.9498 0.877291 32.651 0.705154 30.9387C0.519838 29.2763 0.691902 27.5864 1.20591 26.0205C1.43183 25.2754 1.82041 24.6115 2.33348 24.0942C2.84655 23.5768 3.46644 23.2237 4.13223 23.0696C5.96313 22.7053 7.26198 23.9804 8.92074 24.4176C9.23234 24.534 9.56453 24.5544 9.88492 24.4768C10.2053 24.3993 10.503 24.2264 10.7489 23.975C10.9947 23.7237 11.1805 23.4024 11.2879 23.0426C11.3954 22.6828 11.4209 22.2967 11.3619 21.922C10.6734 18.789 5.77535 18.7343 3.77231 18.7343C3.77231 15.3463 6.96465 14.9091 9.24937 15.1641C10.6048 15.3165 11.9394 15.659 13.2241 16.1842C14.0066 16.4938 14.9142 17.2771 15.7749 17.2042C17.0737 17.0767 17.3398 15.5102 16.7764 14.3626C15.415 11.6667 11.5497 11.4482 9.24937 11.4482C9.24937 7.80506 11.9566 7.11287 14.5543 7.65933C15.8956 7.96639 17.2028 8.44914 18.4508 9.09835C19.2489 9.4991 20.2035 10.2641 21.0798 9.91805C23.3332 9.11657 20.9859 6.31139 19.9844 5.63742C19.2815 5.18592 18.5357 4.83136 17.7623 4.58092C16.9173 4.28947 15.8844 4.39876 16.6512 3.25119C17.8502 2.01985 19.3378 1.23334 20.9233 0.992471C23.8809 0.190991 27.9653 0.0452663 28.6851 4.38055C28.925 6.66941 28.4531 8.98263 27.355 10.9017C24.4396 16.7063 20.8304 21.9992 16.6356 26.6216C14.4137 29.2728 12.0059 31.7039 9.43715 33.8896C7.87228 35.2011 5.80664 36.9498 3.77231 36.9498Z" fill="#A0A0A0"/>
</svg>
