<svg width="18" height="22" viewBox="0 0 18 22" fill="none" xmlns="http://www.w3.org/2000/svg">
<path d="M9 11C9.61875 11 10.1486 10.7844 10.5896 10.3532C11.0299 9.92273 11.25 9.405 11.25 8.8C11.25 8.195 11.0299 7.6769 10.5896 7.2457C10.1486 6.81523 9.61875 6.6 9 6.6C8.38125 6.6 7.85175 6.81523 7.4115 7.2457C6.9705 7.6769 6.75 8.195 6.75 8.8C6.75 9.405 6.9705 9.92273 7.4115 10.3532C7.85175 10.7844 8.38125 11 9 11ZM9 19.085C11.2875 17.0317 12.9844 15.1661 14.0906 13.4882C15.1969 11.8111 15.75 10.3217 15.75 9.02C15.75 7.02167 15.0982 5.38523 13.7947 4.1107C12.492 2.8369 10.8938 2.2 9 2.2C7.10625 2.2 5.50763 2.8369 4.20412 4.1107C2.90138 5.38523 2.25 7.02167 2.25 9.02C2.25 10.3217 2.80312 11.8111 3.90937 13.4882C5.01562 15.1661 6.7125 17.0317 9 19.085ZM9 22C5.98125 19.4883 3.72675 17.1552 2.2365 15.0007C0.7455 12.8469 0 10.8533 0 9.02C0 6.27 0.904875 4.07917 2.71463 2.4475C4.52363 0.815833 6.61875 0 9 0C11.3812 0 13.4764 0.815833 15.2854 2.4475C17.0951 4.07917 18 6.27 18 9.02C18 10.8533 17.2549 12.8469 15.7646 15.0007C14.2736 17.1552 12.0188 19.4883 9 22Z" fill="black"/>
</svg>
