<svg width="18" height="18" viewBox="0 0 18 18" fill="none" xmlns="http://www.w3.org/2000/svg">
<path fill-rule="evenodd" clip-rule="evenodd" d="M9 0C13.9707 0 18 4.0293 18 9C18 13.9707 13.9707 18 9 18C4.0293 18 0 13.9707 0 9C0 4.0293 4.0293 0 9 0ZM9 1.8C7.09044 1.8 5.25909 2.55857 3.90883 3.90883C2.55857 5.25909 1.8 7.09044 1.8 9C1.8 10.9096 2.55857 12.7409 3.90883 14.0912C5.25909 15.4414 7.09044 16.2 9 16.2C10.9096 16.2 12.7409 15.4414 14.0912 14.0912C15.4414 12.7409 16.2 10.9096 16.2 9C16.2 7.09044 15.4414 5.25909 14.0912 3.90883C12.7409 2.55857 10.9096 1.8 9 1.8ZM10.35 4.5C11.1713 4.49881 11.9605 4.81841 12.5495 5.39067C13.1386 5.96294 13.4808 6.74262 13.5034 7.56357C13.5259 8.38451 13.2269 9.18179 12.6702 9.78551C12.1134 10.3892 11.3429 10.7516 10.5228 10.7955L10.35 10.8H8.1V12.6C8.09975 12.8294 8.01191 13.05 7.85444 13.2168C7.69696 13.3836 7.48174 13.484 7.25274 13.4975C7.02375 13.5109 6.79826 13.4364 6.62235 13.2892C6.44644 13.1419 6.33339 12.9331 6.3063 12.7053L6.3 12.6V6.3C6.29986 5.84588 6.47137 5.40849 6.78015 5.07551C7.08893 4.74252 7.51216 4.53856 7.965 4.5045L8.1 4.5H10.35ZM10.35 6.3H8.1V9H10.35C10.6967 8.99983 11.03 8.86628 11.2809 8.62703C11.5319 8.38778 11.6811 8.06117 11.6978 7.71488C11.7144 7.36858 11.5972 7.02915 11.3704 6.76692C11.1437 6.50469 10.8247 6.33975 10.4796 6.3063L10.35 6.3Z" fill="black"/>
</svg>
