<svg width="18" height="18" viewBox="0 0 18 18" fill="none" xmlns="http://www.w3.org/2000/svg">
<path d="M5.04488 10.1183L1.10109 5.97419C0.395966 5.22933 0 4.22037 0 3.1685C0 2.11662 0.395966 1.10766 1.10109 0.362806L7.70858 7.30268L5.04488 10.1183ZM11.4265 8.32383L10.0428 9.78121L16.5186 16.6021L15.1914 18L8.7157 11.1791L2.23999 18L0.912847 16.6021L10.0993 6.92594C9.43104 5.40909 9.90166 3.27755 11.3982 1.70121C13.196 -0.202298 15.775 -0.559206 17.1492 0.888254C18.5328 2.34563 18.194 5.06209 16.3868 6.95569C14.8902 8.53203 12.8666 9.02773 11.4265 8.32383Z" fill="black"/>
</svg>
