<svg width="18" height="18" viewBox="0 0 18 18" fill="none" xmlns="http://www.w3.org/2000/svg">
<path d="M11.248 1.52741C11.123 1.40262 10.9537 1.33252 10.7771 1.33252C10.6005 1.33252 10.4311 1.40262 10.3061 1.52741L1.52741 10.3061C1.40262 10.4311 1.33252 10.6005 1.33252 10.7771C1.33252 10.9537 1.40262 11.123 1.52741 11.248L2.47726 12.197C2.94168 11.9375 3.4781 11.8367 4.00504 11.9098C4.53198 11.983 5.02065 12.2261 5.39682 12.6023C5.773 12.9785 6.01613 13.4671 6.08929 13.9941C6.16245 14.521 6.06163 15.0574 5.80216 15.5219L6.752 16.4726C6.81389 16.5345 6.88737 16.5836 6.96825 16.6172C7.04913 16.6507 7.13582 16.6679 7.22337 16.6679C7.31092 16.6679 7.39761 16.6507 7.47849 16.6172C7.55937 16.5836 7.63285 16.5345 7.69474 16.4726L16.4726 7.69474C16.5974 7.56979 16.6675 7.40041 16.6675 7.22382C16.6675 7.04722 16.5974 6.87784 16.4726 6.75289L15.5219 5.80127C15.0574 6.06074 14.521 6.16156 13.9941 6.0884C13.4671 6.01524 12.9785 5.77211 12.6023 5.39594C12.2261 5.01976 11.983 4.53109 11.9098 4.00415C11.8367 3.47721 11.9375 2.94079 12.197 2.47637L11.248 1.52741ZM9.3643 0.585563C9.54994 0.399917 9.77034 0.252654 10.0129 0.152183C10.2554 0.0517118 10.5154 0 10.778 0C11.0405 0 11.3005 0.0517118 11.543 0.152183C11.7856 0.252654 12.006 0.399917 12.1916 0.585563L13.2321 1.62693C13.6861 2.08008 13.6053 2.71716 13.376 3.1019C13.25 3.31413 13.1983 3.56229 13.229 3.80719C13.2597 4.05209 13.3712 4.27979 13.5457 4.45432C13.7202 4.62885 13.9479 4.74027 14.1928 4.77099C14.4377 4.80171 14.6859 4.74998 14.8981 4.62396C15.2828 4.39561 15.9199 4.31386 16.3731 4.7679L17.4144 5.81016C17.6001 5.9958 17.7473 6.21619 17.8478 6.45875C17.9483 6.7013 18 6.96128 18 7.22382C18 7.48636 17.9483 7.74633 17.8478 7.98889C17.7473 8.23144 17.6001 8.45183 17.4144 8.63748L8.63748 17.4144C8.45183 17.6001 8.23144 17.7473 7.98889 17.8478C7.74633 17.9483 7.48636 18 7.22382 18C6.96128 18 6.7013 17.9483 6.45875 17.8478C6.21619 17.7473 5.9958 17.6001 5.81016 17.4144L4.76879 16.374C4.31564 15.9208 4.39561 15.2828 4.62485 14.899C4.75087 14.6868 4.8026 14.4386 4.77188 14.1937C4.74116 13.9488 4.62974 13.7211 4.45521 13.5466C4.28068 13.372 4.05298 13.2606 3.80808 13.2299C3.56317 13.1992 3.31502 13.2509 3.10279 13.3769C2.71805 13.6053 2.08097 13.6861 1.62782 13.2321L0.585563 12.1907C0.399917 12.0051 0.252654 11.7847 0.152183 11.5421C0.0517118 11.2996 0 11.0396 0 10.7771C0 10.5145 0.0517118 10.2546 0.152183 10.012C0.252654 9.76945 0.399917 9.54906 0.585563 9.36341L9.3643 0.585563Z" fill="black"/>
</svg>
