<svg width="33" height="34" viewBox="0 0 33 34" fill="none" xmlns="http://www.w3.org/2000/svg">
<path d="M16.2913 0.549805C15.6909 1.32312 14.8962 2.12263 14.0398 2.98861C12.9175 4.12328 11.6973 5.35157 10.7298 6.62015C9.76234 7.88866 9.06493 9.18935 8.90576 10.4227C8.75415 11.5968 9.03374 12.7483 10.129 14.0241H22.4537C23.5489 12.7483 23.8286 11.5968 23.677 10.4228C23.5177 9.18935 22.8203 7.88866 21.8528 6.62022C20.8853 5.35171 19.6652 4.12343 18.5428 2.98868C17.6865 2.1227 16.8918 1.32312 16.2913 0.549805ZM1.29755 3.49272C0.226562 4.66286 0.226562 5.83301 0.226562 7.00315H0.695118V12.1957H0.226562V13.5121H0.695118V33.9165H1.89998V13.5121H2.36853V12.1957H1.89998V7.00315H2.36853C2.36853 5.83301 2.36853 4.66286 1.29755 3.49272ZM31.2851 3.49272C30.2141 4.66286 30.2141 5.83301 30.2141 7.00315H30.6827V12.1957H30.2141V13.5121H30.6827V33.9165H31.8876V13.5121H32.3561V12.1957H31.8876V7.00315H32.3561C32.3561 5.83301 32.3561 4.66286 31.2851 3.49272ZM6.65247 13.5121C5.58149 14.6822 4.5105 15.8524 4.5105 17.0225V18.7046H8.79444V17.0225C8.79444 15.8524 7.72346 14.6822 6.65247 13.5121ZM25.9302 13.5121C24.8592 14.6822 23.7882 15.8524 23.7882 17.0225V18.7046H28.0722V17.0225C28.0722 15.8524 27.0012 14.6822 25.9302 13.5121ZM10.4679 15.3404V16.3643H22.1148V15.3404H10.4679ZM10.4679 17.6807V33.9165H13.0784V24.0434C13.0784 22.8732 15.2204 20.5329 16.2913 19.3628C17.3623 20.5329 19.5043 22.8732 19.5043 24.0434V33.9165H22.1148V17.6807H10.4679ZM4.04195 20.021V33.9165H9.263V20.021H4.04195ZM23.3197 20.021V33.9165H28.5407V20.021H23.3197ZM6.65247 20.5329C6.65247 20.5329 7.72346 21.1351 7.72346 21.7031V24.0434H5.58149V21.7031C5.58149 21.1351 6.65247 20.5329 6.65247 20.5329ZM25.9302 20.9326C25.9302 20.9326 27.0012 21.5347 27.0012 22.1027V24.443H24.8592V22.1027C24.8592 21.5347 25.9302 20.9326 25.9302 20.9326ZM6.65247 25.2135C6.65247 25.2135 7.72346 25.8157 7.72346 26.3837V28.724H5.58149V26.3837C5.58149 25.8157 6.65247 25.2135 6.65247 25.2135ZM25.9302 25.2135C25.9302 25.2135 27.0012 25.8157 27.0012 26.3837V28.724H24.8592V26.3837C24.8592 25.8157 25.9302 25.2135 25.9302 25.2135ZM6.65247 29.8941C6.65247 29.8941 7.72346 30.4963 7.72346 31.0642V33.4045H5.58149V31.0642C5.58149 30.4963 6.65247 29.8941 6.65247 29.8941ZM25.9302 29.8941C25.9302 29.8941 27.0012 30.4963 27.0012 31.0642V33.4045H24.8592V31.0642C24.8592 30.4963 25.9302 29.8941 25.9302 29.8941Z" fill="#A0A0A0"/>
</svg>
