<svg width="30" height="29" viewBox="0 0 30 29" fill="none" xmlns="http://www.w3.org/2000/svg">
<path d="M15.15 24.5749L15 24.733L14.835 24.5749C7.71 17.7635 3 13.2594 3 8.6921C3 5.53133 5.25 3.16076 8.25 3.16076C10.56 3.16076 12.81 4.74114 13.605 6.89046H16.395C17.19 4.74114 19.44 3.16076 21.75 3.16076C24.75 3.16076 27 5.53133 27 8.6921C27 13.2594 22.29 17.7635 15.15 24.5749ZM21.75 0C19.14 0 16.635 1.28011 15 3.28719C13.365 1.28011 10.86 0 8.25 0C3.63 0 0 3.80872 0 8.6921C0 14.6501 5.1 19.5335 12.825 26.9139L15 29L17.175 26.9139C24.9 19.5335 30 14.6501 30 8.6921C30 3.80872 26.37 0 21.75 0Z" fill="white"/>
</svg>
