<svg width="10" height="9" viewBox="0 0 10 9" fill="none" xmlns="http://www.w3.org/2000/svg">
<path d="M5.05 7.6267L5 7.67575L4.945 7.6267C2.57 5.51281 1 4.11499 1 2.69755C1 1.71662 1.75 0.980926 2.75 0.980926C3.52 0.980926 4.27 1.47139 4.535 2.13842H5.465C5.73 1.47139 6.48 0.980926 7.25 0.980926C8.25 0.980926 9 1.71662 9 2.69755C9 4.11499 7.43 5.51281 5.05 7.6267ZM7.25 0C6.38 0 5.545 0.397275 5 1.02016C4.455 0.397275 3.62 0 2.75 0C1.21 0 0 1.18202 0 2.69755C0 4.54659 1.7 6.06213 4.275 8.35259L5 9L5.725 8.35259C8.3 6.06213 10 4.54659 10 2.69755C10 1.18202 8.79 0 7.25 0Z" fill="black"/>
</svg>
