<svg width="30" height="34" viewBox="0 0 30 34" fill="none" xmlns="http://www.w3.org/2000/svg">
<path d="M9.15771 0.55977C8.2281 0.460709 7.36292 1.10852 7.12533 2.13171L6.27338 5.79893C17.0663 6.15672 24.3675 14.311 24.8242 26.4584L28.0997 25.43C29.004 25.1458 29.5661 24.1474 29.4585 23.0903C28.2574 11.3085 19.6222 1.67877 9.15771 0.55977ZM5.79419 7.85901L0.0502656 32.591C0.00850905 32.7707 0.00931452 32.9597 0.0526007 33.1389C0.0958869 33.3181 0.180123 33.4812 0.296811 33.6117C0.413499 33.7423 0.558512 33.8357 0.717223 33.8824C0.875933 33.9292 1.04273 33.9278 1.20078 33.8782L23.003 27.0286C22.7573 15.6307 15.9227 7.98935 5.79419 7.86162V7.85901ZM7.3819 27.6615C7.01782 27.6615 6.66192 27.5391 6.3592 27.31C6.05647 27.0808 5.82053 26.7551 5.6812 26.374C5.54188 25.993 5.50542 25.5736 5.57645 25.1691C5.64748 24.7645 5.8228 24.3929 6.08024 24.1013C6.33769 23.8096 6.66569 23.611 7.02277 23.5305C7.37986 23.4501 7.74998 23.4914 8.08635 23.6492C8.42271 23.8071 8.71021 24.0744 8.91248 24.4173C9.11475 24.7603 9.22272 25.1635 9.22272 25.576C9.22272 26.1291 9.02877 26.6595 8.68355 27.0506C8.33833 27.4417 7.87011 27.6615 7.3819 27.6615ZM10.1431 17.7553C9.77905 17.7553 9.42314 17.633 9.12042 17.4039C8.8177 17.1747 8.58176 16.849 8.44243 16.4679C8.3031 16.0869 8.26665 15.6675 8.33768 15.263C8.40871 14.8584 8.58403 14.4868 8.84147 14.1952C9.09891 13.9035 9.42692 13.7049 9.784 13.6244C10.1411 13.544 10.5112 13.5853 10.8476 13.7431C11.1839 13.9009 11.4714 14.1682 11.6737 14.5112C11.876 14.8542 11.9839 15.2574 11.9839 15.6698C11.9839 16.223 11.79 16.7534 11.4448 17.1445C11.0996 17.5356 10.6313 17.7553 10.1431 17.7553ZM16.1258 24.5332C15.7617 24.5332 15.4058 24.4109 15.1031 24.1817C14.8004 23.9526 14.5644 23.6269 14.4251 23.2458C14.2858 22.8647 14.2493 22.4454 14.3203 22.0409C14.3914 21.6363 14.5667 21.2647 14.8241 20.973C15.0816 20.6814 15.4096 20.4828 15.7667 20.4023C16.1237 20.3218 16.4939 20.3631 16.8302 20.521C17.1666 20.6788 17.4541 20.9461 17.6564 21.2891C17.8586 21.632 17.9666 22.0352 17.9666 22.4477C17.9666 23.0008 17.7727 23.5313 17.4274 23.9224C17.0822 24.3135 16.614 24.5332 16.1258 24.5332Z" fill="#A0A0A0"/>
</svg>
