<svg width="28" height="24" viewBox="0 0 28 24" fill="none" xmlns="http://www.w3.org/2000/svg">
<path d="M2.8 18V6.66667H1.4V5.33333H2.8V4H1.4V2.66667H2.8V1.33333H1.4V0H9.8C10.5 0.04 11.13 0.32 11.676 0.84C12.222 1.36 12.53 2 12.6 2.66667H26.6V4H12.6C12.53 4.70667 12.222 5.33333 11.676 5.90667C11.13 6.48 10.5 6.73333 9.8 6.66667H7V16.0667C7.07 16.0667 7.182 16.0533 7.336 16C7.49 15.9467 7.616 16 7.7 16C8.484 16 9.38 16.1867 10.388 16.56C10.962 15.3333 11.942 14.24 13.342 13.3333C14.742 12.4267 16.142 12 17.542 12C19.684 12 21.504 12.7067 22.988 14.12C24.472 15.5333 25.2 17.2667 25.2 19.3333V19.6933C25.2 19.8667 25.158 19.96 25.158 20H1.596C1.778 19.3333 2.17 18.6667 2.8 18ZM5.6 16.3067V6.66667H4.2V16.9333C4.9 16.6 5.334 16.4 5.6 16.3067ZM9.8 5.33333V4H7V5.33333H9.8ZM9.8 1.33333H7V2.66667H9.8V1.33333ZM4.2 1.33333V2.66667H5.6V1.33333H4.2ZM4.2 4V5.33333H5.6V4H4.2ZM0 21.3333H28L25.2 24H2.8L0 21.3333Z" fill="#A0A0A0"/>
</svg>
