<svg width="28" height="29" viewBox="0 0 28 29" fill="none" xmlns="http://www.w3.org/2000/svg">
<path fill-rule="evenodd" clip-rule="evenodd" d="M20.3623 11.6867C20.3623 12.8629 20.1319 14.0275 19.6842 15.1142C19.2365 16.2008 18.5803 17.1881 17.753 18.0198C16.9258 18.8515 15.9437 19.5112 14.8628 19.9613C13.7819 20.4114 12.6235 20.6431 11.4536 20.6431C10.2837 20.6431 9.12519 20.4114 8.04433 19.9613C6.96347 19.5112 5.98138 18.8515 5.15413 18.0198C4.32687 17.1881 3.67066 16.2008 3.22295 15.1142C2.77524 14.0275 2.54481 12.8629 2.54481 11.6867C2.54481 9.31131 3.48341 7.03321 5.15413 5.35356C6.82484 3.67391 9.09082 2.7303 11.4536 2.7303C13.8163 2.7303 16.0823 3.67391 17.753 5.35356C19.4237 7.03321 20.3623 9.31131 20.3623 11.6867ZM18.6035 20.684C16.3163 22.5211 13.4162 23.4079 10.4989 23.1625C7.58158 22.917 4.86848 21.5579 2.91679 19.3642C0.9651 17.1705 -0.0770248 14.3088 0.00444017 11.3668C0.0859052 8.42478 1.28478 5.62578 3.35484 3.54465C5.4249 1.46352 8.20901 0.25824 11.1354 0.176339C14.0617 0.0944383 16.9082 1.14214 19.0903 3.10426C21.2723 5.06639 22.6242 7.794 22.8683 10.7269C23.1125 13.6598 22.2303 16.5754 20.403 18.8748L27.6268 26.1346C27.7451 26.2536 27.839 26.3948 27.903 26.5502C27.967 26.7057 28 26.8723 28 27.0405C28 27.2087 27.967 27.3753 27.903 27.5308C27.839 27.6862 27.7451 27.8274 27.6268 27.9464C27.5084 28.0653 27.368 28.1597 27.2134 28.2241C27.0588 28.2885 26.8931 28.3216 26.7257 28.3216C26.5584 28.3216 26.3927 28.2885 26.2381 28.2241C26.0835 28.1597 25.943 28.0653 25.8247 27.9464L18.606 20.684H18.6035Z" fill="#A0A0A0"/>
</svg>
