<svg width="18" height="17" viewBox="0 0 18 17" fill="none" xmlns="http://www.w3.org/2000/svg">
<path d="M5.04488 9.55616L1.10109 5.64229C0.395966 4.93881 0 3.98591 0 2.99247C0 1.99903 0.395966 1.04613 1.10109 0.34265L7.70858 6.89698L5.04488 9.55616ZM11.4265 7.8614L10.0428 9.23781L16.5186 15.6798L15.1914 17L8.7157 10.558L2.23999 17L0.912847 15.6798L10.0993 6.54117C9.43104 5.10858 9.90166 3.09547 11.3982 1.6067C13.196 -0.191059 15.775 -0.528139 17.1492 0.838906C18.5328 2.21531 18.194 4.78086 16.3868 6.56926C14.8902 8.05803 12.8666 8.52619 11.4265 7.8614Z" fill="black"/>
</svg>
