<svg width="24" height="34" viewBox="0 0 24 34" fill="none" xmlns="http://www.w3.org/2000/svg">
<path d="M21.3077 15.5774C20.9356 15.0277 20.4827 14.5512 20.0621 14.0747C18.9783 12.9751 17.7489 12.1871 16.7136 11.0325C14.3033 8.35685 13.7695 3.94019 15.3062 0.549805C13.7695 0.971312 12.4269 1.92428 11.2783 2.96889C7.08866 6.78078 5.43868 13.5066 7.41219 19.2794C7.47689 19.4626 7.5416 19.6459 7.5416 19.8841C7.5416 20.2873 7.29896 20.6539 6.97543 20.8005C6.60337 20.9837 6.21514 20.8738 5.90779 20.5805C5.81543 20.494 5.73856 20.3883 5.68132 20.269C3.8534 17.6483 3.56222 13.8914 4.79162 10.8859C2.09017 13.3783 0.618128 17.5933 0.828421 21.5702C0.925479 22.4865 1.02254 23.4028 1.29753 24.3191C1.524 25.4187 1.96076 26.5183 2.44605 27.4896C4.1931 30.6601 7.21807 32.9325 10.4695 33.3907C13.9313 33.8855 17.6356 33.1708 20.2886 30.4585C23.2488 27.4163 24.2841 22.5415 22.7635 18.3631L22.5532 17.8866C22.2135 17.0436 21.3077 15.5774 21.3077 15.5774ZM16.1959 27.1231C15.743 27.5629 14.9989 28.0394 14.4165 28.2227C12.6048 28.9557 10.793 27.9294 9.72541 26.7199C11.6504 26.2068 12.7989 24.594 13.1386 22.963C13.4136 21.4969 12.896 20.2873 12.6857 18.8762C12.4916 17.52 12.5239 16.3655 12.9607 15.101C13.268 15.7974 13.5916 16.4938 13.9798 17.0436C15.2254 18.8762 17.1827 19.6826 17.6033 22.1749C17.668 22.4315 17.7003 22.6881 17.7003 22.963C17.7489 24.4657 17.1665 26.1151 16.1959 27.1231Z" fill="black"/>
</svg>
