<svg width="30" height="31" viewBox="0 0 30 31" fill="none" xmlns="http://www.w3.org/2000/svg">
<path d="M15 0.171875C13.0302 0.171875 11.0796 0.561936 9.25975 1.31979C7.43986 2.07764 5.78628 3.18844 4.3934 4.58877C1.58035 7.41686 0 11.2526 0 15.2521C0 19.2516 1.58035 23.0873 4.3934 25.9154C5.78628 27.3157 7.43986 28.4265 9.25975 29.1844C11.0796 29.9422 13.0302 30.3323 15 30.3323C18.9782 30.3323 22.7936 28.7435 25.6066 25.9154C28.4196 23.0873 30 19.2516 30 15.2521C30 13.2717 29.612 11.3108 28.8582 9.48114C28.1044 7.65152 26.9995 5.98909 25.6066 4.58877C24.2137 3.18844 22.5601 2.07764 20.7403 1.31979C18.9204 0.561936 16.9698 0.171875 15 0.171875ZM7.605 24.7225C8.25 23.3652 12.18 22.0382 15 22.0382C17.82 22.0382 21.75 23.3652 22.395 24.7225C20.2941 26.4055 17.6863 27.3201 15 27.3163C12.21 27.3163 9.645 26.3511 7.605 24.7225ZM24.54 22.5358C22.395 19.9119 17.19 19.0221 15 19.0221C12.81 19.0221 7.605 19.9119 5.46 22.5358C3.86428 20.4467 2.9995 17.8862 3 15.2521C3 8.60171 8.385 3.18792 15 3.18792C21.615 3.18792 27 8.60171 27 15.2521C27 17.9967 26.07 20.5302 24.54 22.5358ZM15 6.20396C12.09 6.20396 9.75 8.55647 9.75 11.482C9.75 14.4076 12.09 16.7601 15 16.7601C17.91 16.7601 20.25 14.4076 20.25 11.482C20.25 8.55647 17.91 6.20396 15 6.20396ZM15 13.7441C14.4033 13.7441 13.831 13.5057 13.409 13.0815C12.9871 12.6573 12.75 12.082 12.75 11.482C12.75 10.8821 12.9871 10.3067 13.409 9.88254C13.831 9.45832 14.4033 9.22 15 9.22C15.5967 9.22 16.169 9.45832 16.591 9.88254C17.0129 10.3067 17.25 10.8821 17.25 11.482C17.25 12.082 17.0129 12.6573 16.591 13.0815C16.169 13.5057 15.5967 13.7441 15 13.7441Z" fill="#A0A0A0"/>
</svg>
