<svg width="24" height="24" viewBox="0 0 24 24" fill="none" xmlns="http://www.w3.org/2000/svg">
<path d="M2 2C6.056 5.007 11.232 11.337 12 22C12.897 15.182 13.5 12.5 16 8" stroke="#A0A0A0" stroke-width="2" stroke-linecap="round" stroke-linejoin="round"/>
<path d="M20.375 6.533C21.4384 8.1578 22.0032 10.0582 22 12C22 17.523 17.523 22 12 22C6.477 22 2 17.523 2 12C2 6.477 6.477 2 12 2C14.003 2 15.869 2.589 17.433 3.603" stroke="#A0A0A0" stroke-width="2" stroke-linecap="round" stroke-linejoin="round"/>
<path d="M17.1035 4C16.1015 5.274 15.9575 6.586 16.0035 8C17.9035 7.9 19.0065 7.799 20.3035 6.6C21.7095 5.3 21.9035 4.3 22.0035 2C19.3035 2.1 18.3805 2.375 17.1035 4Z" stroke="#A0A0A0" stroke-width="2" stroke-linecap="round" stroke-linejoin="round"/>
</svg>
