<svg width="28" height="28" viewBox="0 0 28 28" fill="none" xmlns="http://www.w3.org/2000/svg">
<path d="M2.89197 21.735L2.89597 21.732C-1.03603 17.556 -0.964029 10.962 3.11197 6.88501C4.91197 5.08501 7.30197 3.97501 9.83197 3.74501C11.1077 3.63346 12.3038 3.07785 13.212 2.17501L13.392 1.99501C15.982 -0.594989 20.164 -0.662989 22.838 1.79001L22.843 1.78501L23.053 1.99501L25.993 4.93501C28.653 7.59501 28.653 11.935 25.993 14.595L25.813 14.775C24.913 15.685 24.353 16.885 24.243 18.155C24.023 20.695 22.913 23.085 21.113 24.885C16.953 29.035 10.193 29.035 6.04297 24.885L2.89197 21.735ZM2.92197 9.60501C0.779971 13.04 1.14597 17.595 4.01997 20.646C5.08508 21.7791 6.42315 22.6198 7.90615 23.0878C9.38914 23.5559 10.9674 23.6354 12.49 23.319C13.5597 23.0963 14.5802 22.6816 15.502 22.095C15.992 21.785 16.182 21.155 15.932 20.625L13.082 14.645C12.5187 13.4782 11.5729 12.5395 10.402 11.985L4.39197 9.16501C3.86197 8.92501 3.23197 9.10501 2.92197 9.60501ZM16.352 19.125C16.4337 19.2985 16.5575 19.4487 16.7122 19.562C16.8669 19.6753 17.0475 19.748 17.2375 19.7736C17.4276 19.7992 17.621 19.7767 17.8001 19.7083C17.9792 19.6399 18.1383 19.5277 18.263 19.382C19.1076 18.095 19.6195 16.6186 19.753 15.085C19.893 13.445 20.613 11.905 21.773 10.735L21.953 10.555C22.4584 10.0507 22.8559 9.44868 23.1212 8.78575C23.3864 8.12282 23.514 7.41282 23.496 6.69901C23.4789 5.97795 23.3134 5.26814 23.01 4.61384C22.7065 3.95954 22.2714 3.37477 21.732 2.89601C19.644 1.04101 16.431 1.17601 14.442 3.16501L14.322 3.28501C13.1532 4.44687 11.6138 5.16174 9.97197 5.30501C8.47197 5.43501 7.03197 5.92501 5.77197 6.72501C5.01197 7.21501 5.08197 8.35501 5.90197 8.73501L10.822 11.065C10.828 11.065 10.832 11.068 10.838 11.07C10.843 11.072 10.848 11.075 10.852 11.075C11.822 11.525 12.962 11.355 13.722 10.595L14.462 9.85501C14.932 9.38501 15.112 8.69501 14.922 8.06501C14.7586 7.52294 14.7449 6.94681 14.8822 6.39757C15.0195 5.84834 15.3028 5.34644 15.702 4.94501C16.0032 4.6423 16.3636 4.40485 16.7606 4.24746C17.1576 4.09007 17.5828 4.01611 18.0096 4.03018C18.4364 4.04425 18.8558 4.14605 19.2416 4.32925C19.6274 4.51245 19.9713 4.77311 20.252 5.09501C21.282 6.25501 21.282 8.03501 20.252 9.20501C19.402 10.165 18.122 10.475 17.002 10.135C16.6895 10.0384 16.3565 10.0293 16.0391 10.1086C15.7218 10.1879 15.4322 10.3527 15.202 10.585L14.472 11.315C13.712 12.075 13.542 13.225 14.002 14.195C14.002 14.2 14.005 14.203 14.008 14.205C14.01 14.208 14.013 14.21 14.013 14.215L16.353 19.125H16.352ZM16.662 5.88501C15.992 6.55501 15.992 7.63501 16.662 8.30501C17.332 8.97501 18.422 8.97501 19.092 8.31501C19.762 7.64501 19.762 6.55501 19.092 5.88501C18.7695 5.5632 18.3325 5.38246 17.877 5.38246C17.4214 5.38246 16.9844 5.5632 16.662 5.88501Z" fill="#A0A0A0"/>
</svg>
